<svg  viewBox="0 0 65 65" fill="none" xmlns="http://www.w3.org/2000/svg">
<path fill-rule="evenodd" clip-rule="evenodd" d="M4.31055 26.351C4.31055 34.3116 8.34673 41.2946 14.4128 45.2198V40.1436C10.7192 36.8316 8.35147 31.917 8.35147 26.351C8.35147 16.1689 16.2753 8.1669 25.7442 8.1669C33.7767 8.1669 40.6973 13.9253 42.6121 21.8881L42.6182 21.8856C42.8886 22.9905 43.061 24.1359 43.1253 25.3115C44.3842 24.6805 45.7849 24.3306 47.2439 24.3306C52.4082 24.3306 56.8425 28.7142 56.8425 34.4328C56.8425 38.7806 54.2794 42.3566 50.7811 43.8213V48.0958C56.5992 46.4803 60.8834 40.9754 60.8834 34.4328C60.8834 26.6218 54.7768 20.2897 47.2439 20.2897C46.9532 20.2897 46.6647 20.2991 46.3786 20.3177C43.843 10.9749 35.5649 4.12598 25.7442 4.12598C13.9067 4.12598 4.31055 14.0765 4.31055 26.351ZM35.1356 49.6276L36.6379 48.5761L35.1356 47.5245L35.4543 45.7187L33.6485 46.0374L32.597 44.5352L31.5454 46.0374L29.7396 45.7187L30.0583 47.5245L28.5561 48.5761L30.0583 49.6276L29.7396 51.4334L31.5454 51.1147L32.597 52.617L33.6485 51.1147L35.4543 51.4334L35.1356 49.6276ZM30.2299 40.4943L28.7276 41.5458L29.0463 43.3516L27.2405 43.0329L26.189 44.5352L25.1374 43.0329L23.3316 43.3516L23.6503 41.5458L22.148 40.4943L23.6503 39.4427L23.3316 37.6369L25.1374 37.9556L26.189 36.4533L27.2405 37.9556L29.0463 37.6369L28.7276 39.4427L30.2299 40.4943ZM28.7276 57.7095L30.2299 56.6579L28.7276 55.6064L29.0463 53.8006L27.2405 54.1193L26.189 52.617L25.1374 54.1193L23.3316 53.8006L23.6503 55.6064L22.148 56.6579L23.6503 57.7095L23.3316 59.5153L25.1374 59.1966L26.189 60.6988L27.2405 59.1966L29.0463 59.5153L28.7276 57.7095ZM48.7607 48.5761L47.2584 49.6276L47.5771 51.4334L45.7713 51.1147L44.7197 52.617L43.6682 51.1147L41.8624 51.4334L42.1811 49.6276L40.6788 48.5761L42.1811 47.5245L41.8624 45.7187L43.6682 46.0374L44.7197 44.5352L45.7713 46.0374L47.5771 45.7187L47.2584 47.5245L48.7607 48.5761ZM40.8504 41.5458L42.3526 40.4943L40.8504 39.4427L41.1691 37.6369L39.3633 37.9556L38.3117 36.4533L37.2602 37.9556L35.4543 37.6369L35.7731 39.4427L34.2708 40.4943L35.7731 41.5458L35.4543 43.3516L37.2602 43.0329L38.3117 44.5352L39.3633 43.0329L41.1691 43.3516L40.8504 41.5458ZM42.3526 56.6579L40.8504 57.7095L41.1691 59.5153L39.3633 59.1966L38.3117 60.6988L37.2602 59.1966L35.4543 59.5153L35.7731 57.7095L34.2708 56.6579L35.7731 55.6064L35.4543 53.8006L37.2602 54.1193L38.3117 52.617L39.3633 54.1193L41.1691 53.8006L40.8504 55.6064L42.3526 56.6579ZM22.6662 49.6276L24.1685 48.5761L22.6662 47.5245L22.9849 45.7187L21.1791 46.0374L20.1276 44.5352L19.076 46.0374L17.2702 45.7187L17.5889 47.5245L16.0867 48.5761L17.5889 49.6276L17.2702 51.4334L19.076 51.1147L20.1276 52.617L21.1791 51.1147L22.9849 51.4334L22.6662 49.6276Z" fill="white"/>
</svg>
