<svg viewBox="0 0 66 65" fill="none" xmlns="http://www.w3.org/2000/svg">
<path fill-rule="evenodd" clip-rule="evenodd" d="M21.6878 15.4521L23.1883 14.4018L21.6878 13.3515L22.0061 11.5479L20.2025 11.8662L19.1522 10.3657L18.1019 11.8662L16.2983 11.5479L16.6166 13.3515L15.1161 14.4018L16.6166 15.4521L16.2983 17.2557L18.1019 16.9374L19.1522 18.4379L20.2025 16.9374L22.0061 17.2557L21.6878 15.4521ZM28.0883 23.5242L29.5887 22.4739L28.0883 21.4237L28.4066 19.62L26.603 19.9383L25.5527 18.4379L24.5024 19.9383L22.6987 19.62L23.017 21.4237L21.5166 22.4739L23.017 23.5242L22.6987 25.3279L24.5024 25.0096L25.5527 26.51L26.603 25.0096L28.4066 25.3279L28.0883 23.5242ZM41.697 22.4739L40.1965 23.5242L40.5148 25.3279L38.7112 25.0096L37.6609 26.51L36.6106 25.0096L34.8069 25.3279L35.1253 23.5242L33.6248 22.4739L35.1253 21.4237L34.8069 19.62L36.6106 19.9383L37.6609 18.4379L38.7112 19.9383L40.5148 19.62L40.1965 21.4237L41.697 22.4739ZM33.796 15.4521L35.2965 14.4018L33.796 13.3515L34.1144 11.5479L32.3107 11.8662L31.2604 10.3657L30.2101 11.8662L28.4065 11.5479L28.7248 13.3515L27.2243 14.4018L28.7248 15.4521L28.4065 17.2557L30.2101 16.9374L31.2604 18.4379L32.3107 16.9374L34.1144 17.2557L33.796 15.4521ZM17.1342 22.4739L15.6337 23.5242L15.952 25.3279L14.1484 25.0096L13.0981 26.51L12.0478 25.0096L10.2441 25.3279L10.5625 23.5242L9.06201 22.4739L10.5625 21.4237L10.2442 19.62L12.0478 19.9383L13.0981 18.4379L14.1484 19.9383L15.952 19.62L15.6337 21.4237L17.1342 22.4739ZM47.4393 22.9754L47.4411 22.9744C47.978 22.6714 48.5772 22.4955 49.1927 22.4603C49.8088 22.4251 50.4248 22.5318 50.9932 22.7723C51.5617 23.0127 52.0673 23.3805 52.4713 23.8472C52.8752 24.3139 53.1667 24.8671 53.3232 25.4643C53.4797 26.0614 53.4972 26.6866 53.3741 27.2915C53.251 27.8964 52.9908 28.4651 52.6135 28.9535C52.2361 29.442 51.7517 29.8374 51.1975 30.1091C50.6434 30.3808 50.0343 30.5216 49.4171 30.5208L49.4171 30.5251H9.06201V34.5612H49.4115V34.5618C50.6469 34.5635 51.8663 34.2816 52.9756 33.7376C53.1365 33.6588 53.2943 33.5747 53.449 33.4857C54.3616 32.9603 55.1642 32.2605 55.8101 31.4244C56.5655 30.4465 57.0865 29.3082 57.3328 28.0972C57.5791 26.8862 57.5443 25.6348 57.231 24.4394C56.9176 23.244 56.3342 22.1365 55.5255 21.2021C54.7168 20.2678 53.7046 19.5317 52.5667 19.0503C51.5936 18.6387 50.5509 18.4229 49.4979 18.4131C49.3195 18.4114 49.1408 18.4157 48.9622 18.4259C47.7302 18.4963 46.5309 18.8483 45.4562 19.4548L45.4522 19.4571L45.4545 19.4611L47.4393 22.9754ZM9.06201 42.7601L35.7118 52.2411L35.7115 52.2419C36.676 52.6267 37.7134 52.794 38.7499 52.7318C39.1484 52.7079 39.5431 52.6503 39.9297 52.5602C40.5486 52.4159 41.1469 52.1883 41.708 51.8822C42.6196 51.3849 43.4103 50.6925 44.0237 49.8545C44.6371 49.0165 45.0582 48.0534 45.257 47.034C45.4557 46.0145 45.4272 44.9637 45.1735 43.9566C44.9197 42.9494 44.447 42.0106 43.789 41.2071C43.384 40.7125 42.9149 40.2767 42.3955 39.9104C42.0711 39.6816 41.7271 39.4799 41.3668 39.308C40.431 38.8616 39.4084 38.6267 38.3717 38.6202V38.6142L9.06201 38.6141V42.7601ZM38.3444 42.6506L20.7971 42.6505L37.2826 48.5154L37.2811 48.5196C37.673 48.6642 38.0908 48.7261 38.5083 48.701C38.9522 48.6744 39.3847 48.5502 39.775 48.3372C40.1654 48.1243 40.504 47.8278 40.7667 47.4689C41.0293 47.1101 41.2097 46.6976 41.2948 46.2611C41.3799 45.8245 41.3677 45.3746 41.259 44.9433C41.1504 44.512 40.9479 44.11 40.6662 43.7659C40.3844 43.4218 40.0302 43.1441 39.6289 42.9527C39.2281 42.7615 38.7902 42.6609 38.3462 42.6581L38.3443 42.6581L38.3443 42.6574L38.3444 42.6506Z" fill="white"/>
</svg>
