<svg  viewBox="0 0 66 65" fill="none" xmlns="http://www.w3.org/2000/svg">
<path fill-rule="evenodd" clip-rule="evenodd" d="M23.7905 16.4355C24.5057 16.3608 25.2314 16.3225 25.9656 16.3225C35.7864 16.3225 44.0645 23.1713 46.6 32.5142C46.803 32.501 47.0071 32.4924 47.2124 32.4885C47.129 32.4871 47.0454 32.4864 46.9616 32.4864L46.8938 32.4865L46.8937 32.4861H49.9923H50.1139V32.4851C53.9633 32.4202 57.0639 29.2794 57.0639 25.4145C57.0639 21.509 53.8978 18.3429 49.9923 18.3429C48.6809 18.3429 47.453 18.6999 46.4002 19.3218C46.3971 18.1929 46.2257 17.1036 45.9097 16.0777C44.3353 11.5167 40.0046 8.24063 34.9086 8.24063C29.6803 8.24063 25.2575 11.6891 23.7905 16.4355ZM55.4004 35.1246C58.8543 37.6906 61.1049 41.8874 61.1049 46.6293C61.1049 54.4404 54.9982 60.7725 47.4653 60.7725C47.2967 60.7725 47.1288 60.7693 46.9616 60.763V60.7726H26.2865V60.7701C26.1797 60.7718 26.0728 60.7726 25.9656 60.7726C14.1281 60.7726 4.53198 50.8221 4.53198 38.5475C4.53198 28.6358 10.7892 20.2395 19.4311 17.3743C20.6288 9.90561 27.1024 4.19971 34.9086 4.19971C41.6061 4.19971 47.3227 8.39992 49.5678 14.31C49.7086 14.3047 49.8501 14.302 49.9923 14.302C56.1295 14.302 61.1048 19.2773 61.1048 25.4145C61.1048 29.5886 58.8034 33.2251 55.4004 35.1246ZM46.9616 56.7317H26.2865H26.054V56.7314L25.9656 56.7317C16.4967 56.7317 8.5729 48.7297 8.5729 38.5475C8.5729 28.3653 16.4967 20.3634 25.9656 20.3634C33.9981 20.3634 40.9187 26.1218 42.8335 34.0846L42.8396 34.0821C43.1101 35.187 43.2825 36.3324 43.3467 37.5079C44.6056 36.8769 46.0063 36.5271 47.4653 36.5271C52.6296 36.5271 57.0639 40.9107 57.0639 46.6293C57.0639 52.308 52.6915 56.6701 47.5737 56.7309V56.7317H46.9616Z" fill="white"/>
</svg>
