<svg viewBox="0 0 65 65" fill="none" xmlns="http://www.w3.org/2000/svg">
<path fill-rule="evenodd" clip-rule="evenodd" d="M35.9763 4.19971V9.11979H40.0172V4.19971H35.9763ZM60.9571 25.1396H56.0371L56.0371 29.1805H60.9571V25.1396ZM52.61 16.3902L56.8709 13.9301L58.8913 17.4297L54.6304 19.8897L52.61 16.3902ZM47.7273 6.26553L45.2673 10.5264L48.7668 12.5469L51.2268 8.28599L47.7273 6.26553ZM27.2269 12.5469L24.7668 8.28599L28.2664 6.26553L30.7264 10.5264L27.2269 12.5469ZM60.9571 46.1242C60.9571 40.0093 57.3395 34.7696 52.1999 32.5755C52.8369 30.8919 53.1856 29.0666 53.1856 27.1598C53.1856 18.706 46.3324 11.8529 37.8787 11.8529C33.3963 11.8529 29.3639 13.7796 26.5645 16.8499C26.2445 16.8351 25.9226 16.8276 25.5991 16.8276C13.8825 16.8276 4.38428 26.665 4.38428 38.8001C4.38428 50.9352 13.8825 60.7726 25.5991 60.7726C25.7321 60.7726 25.8649 60.7713 25.9973 60.7688V60.7726H46.8035L46.8139 60.7726L46.8243 60.7726H47.3016V60.764C54.8869 60.4978 60.9571 54.0452 60.9571 46.1242ZM49.1447 27.1598C49.1447 28.7177 48.8284 30.2017 48.2567 31.5512C47.7823 31.5014 47.301 31.4759 46.8139 31.4759C46.4132 31.4759 46.0164 31.4932 45.6241 31.527C43.3884 24.9236 38.194 19.7613 31.6876 17.7459C33.4642 16.5751 35.5919 15.8938 37.8787 15.8938C44.1007 15.8938 49.1447 20.9378 49.1447 27.1598ZM25.5991 56.7317L25.6821 56.7314V56.7317L25.9973 56.7317L46.8084 56.7317H46.8139L46.8225 56.7317C52.2657 56.7268 56.9162 52.1142 56.9162 46.1242C56.9162 40.1311 52.2608 35.5168 46.8139 35.5168C45.3387 35.5168 43.9215 35.8553 42.6391 36.468C42.4647 35.0803 42.1365 33.7425 41.6729 32.4737L41.6772 32.472C39.2108 25.6357 32.8672 20.8685 25.5991 20.8685C16.2467 20.8685 8.4252 28.7619 8.4252 38.8001C8.4252 48.8382 16.2467 56.7317 25.5991 56.7317Z" fill="white"/>
</svg>
