<svg  viewBox="0 0 65 65" fill="none" xmlns="http://www.w3.org/2000/svg">
<path fill-rule="evenodd" clip-rule="evenodd" d="M60.8834 34.3591C60.8834 40.9016 56.5992 46.4066 50.7811 48.022V43.7476C54.2794 42.2829 56.8425 38.7069 56.8425 34.3591C56.8425 28.6404 52.4082 24.2569 47.2439 24.2569C45.7849 24.2569 44.3842 24.6067 43.1253 25.2377C43.061 24.0622 42.8886 22.9167 42.6182 21.8119L42.6121 21.8144C40.6973 13.8516 33.7767 8.09317 25.7442 8.09317C16.2753 8.09317 8.35147 16.0951 8.35147 26.2773C8.35147 32.8016 11.6048 38.4308 16.4333 41.6333V46.3015C9.25943 42.7083 4.31055 35.0921 4.31055 26.2773C4.31055 14.0027 13.9067 4.05225 25.7442 4.05225C35.5649 4.05225 43.843 10.9011 46.3786 20.2439C46.6647 20.2254 46.9532 20.2159 47.2439 20.2159C54.7768 20.2159 60.8834 26.5481 60.8834 34.3591ZM20.4763 45.2881C20.476 44.3215 20.7839 43.271 21.2034 42.2883C22.0995 40.1894 23.5049 38.4001 23.5049 38.4001C23.5049 38.4001 24.847 40.2538 25.7456 42.2899C26.1977 43.314 26.5374 44.3844 26.5377 45.2881C26.5383 47.0633 25.1818 48.5024 23.508 48.5024C21.8342 48.5024 20.4769 47.0633 20.4763 45.2881ZM31.3057 42.2883C30.8862 43.271 30.5783 44.3215 30.5786 45.2881C30.5792 47.0633 31.9365 48.5024 33.6103 48.5024C35.2841 48.5024 36.6406 47.0633 36.64 45.2881C36.6397 44.3844 36.3 43.314 35.8479 42.2899C34.9493 40.2538 33.6072 38.4001 33.6072 38.4001C33.6072 38.4001 32.2018 40.1894 31.3057 42.2883ZM26.2842 55.3904C26.2839 54.4238 26.5917 53.3733 27.0113 52.3906C27.9073 50.2917 29.3127 48.5024 29.3127 48.5024C29.3127 48.5024 30.6549 50.3561 31.5535 52.3922C32.0055 53.4163 32.3453 54.4867 32.3456 55.3904C32.3461 57.1656 30.9897 58.6047 29.3158 58.6047C27.642 58.6047 26.2847 57.1656 26.2842 55.3904ZM41.408 42.2883C40.9885 43.271 40.6806 44.3215 40.6809 45.2881C40.6815 47.0633 42.0388 48.5024 43.7126 48.5024C45.3864 48.5024 46.7429 47.0633 46.7423 45.2881C46.742 44.3844 46.4022 43.314 45.9502 42.2899C45.0516 40.2538 43.7095 38.4001 43.7095 38.4001C43.7095 38.4001 42.3041 40.1894 41.408 42.2883ZM36.4166 55.3904C36.4163 54.4238 36.7241 53.3733 37.1437 52.3906C38.0397 50.2917 39.4451 48.5024 39.4451 48.5024C39.4451 48.5024 40.7873 50.3561 41.6859 52.3922C42.1379 53.4163 42.4777 54.4867 42.4779 55.3904C42.4785 57.1656 41.122 58.6047 39.4482 58.6047C37.7744 58.6047 36.4171 57.1656 36.4166 55.3904Z" fill="url(#paint0_linear_206_1720)"/>
<defs>
<linearGradient id="paint0_linear_206_1720" x1="32.597" y1="4.05225" x2="32.597" y2="58.6047" gradientUnits="userSpaceOnUse">
<stop stop-color="#95B6F6"/>
<stop offset="1" stop-color="#5193DE"/>
</linearGradient>
</defs>
</svg>
