<svg  viewBox="0 0 65 65" fill="none" xmlns="http://www.w3.org/2000/svg">
<path fill-rule="evenodd" clip-rule="evenodd" d="M50.7074 48.022C56.5255 46.4066 60.8097 40.9016 60.8097 34.3591C60.8097 31.4414 59.9576 28.73 58.4974 26.4779C59.9607 24.2082 60.8098 21.5051 60.8098 18.6038C60.8098 10.5672 54.2949 4.05225 46.2583 4.05225C42.7316 4.05225 39.498 5.30682 36.9793 7.39403C33.6967 5.27578 29.8214 4.05225 25.6704 4.05225C13.833 4.05225 4.23682 14.0027 4.23682 26.2773C4.23682 35.0921 9.1857 42.7083 16.3596 46.3015V41.6333C11.5311 38.4308 8.27774 32.8016 8.27774 26.2773C8.27774 16.0951 16.2016 8.09317 25.6704 8.09317C33.7029 8.09317 40.6236 13.8516 42.5384 21.8144L42.5445 21.8119C42.8149 22.9167 42.9873 24.0622 43.0515 25.2377C44.3105 24.6067 45.7112 24.2569 47.1702 24.2569C52.3345 24.2569 56.7688 28.6404 56.7688 34.3591C56.7688 38.7069 54.2057 42.2829 50.7074 43.7476V48.022ZM40.2456 9.98176C43.0939 12.7223 45.2225 16.2559 46.3049 20.2439C46.591 20.2254 46.8795 20.2159 47.1702 20.2159C50.3828 20.2159 53.336 21.3676 55.6667 23.2946C56.3721 21.8826 56.7689 20.2895 56.7689 18.6038C56.7689 12.7989 52.0632 8.09317 46.2583 8.09317C44.0222 8.09317 41.9493 8.79141 40.2456 9.98176ZM21.1297 42.2883C20.7102 43.271 20.4023 44.3215 20.4026 45.2881C20.4032 47.0633 21.7605 48.5024 23.4343 48.5024C25.1081 48.5024 26.4645 47.0633 26.464 45.2881C26.4637 44.3844 26.1239 43.314 25.6719 42.2899C24.7733 40.2538 23.4312 38.4001 23.4312 38.4001C23.4312 38.4001 22.0258 40.1894 21.1297 42.2883ZM30.5049 45.2881C30.5046 44.3215 30.8125 43.271 31.232 42.2883C32.1281 40.1894 33.5335 38.4001 33.5335 38.4001C33.5335 38.4001 34.8756 40.2538 35.7742 42.2899C36.2262 43.314 36.566 44.3844 36.5663 45.2881C36.5668 47.0633 35.2104 48.5024 33.5366 48.5024C31.8628 48.5024 30.5055 47.0633 30.5049 45.2881ZM26.9375 52.3906C26.518 53.3733 26.2101 54.4238 26.2104 55.3904C26.211 57.1656 27.5683 58.6047 29.2421 58.6047C30.9159 58.6047 32.2724 57.1656 32.2718 55.3904C32.2715 54.4867 31.9318 53.4163 31.4797 52.3922C30.5811 50.3561 29.239 48.5024 29.239 48.5024C29.239 48.5024 27.8336 50.2917 26.9375 52.3906ZM40.6072 45.2881C40.6069 44.3215 40.9148 43.271 41.3343 42.2883C42.2304 40.1894 43.6358 38.4001 43.6358 38.4001C43.6358 38.4001 44.9779 40.2538 45.8765 42.2899C46.3285 43.314 46.6683 44.3844 46.6686 45.2881C46.6691 47.0633 45.3127 48.5024 43.6389 48.5024C41.9651 48.5024 40.6077 47.0633 40.6072 45.2881ZM37.0699 52.3906C36.6504 53.3733 36.3425 54.4238 36.3428 55.3904C36.3434 57.1656 37.7007 58.6047 39.3745 58.6047C41.0483 58.6047 42.4048 57.1656 42.4042 55.3904C42.4039 54.4867 42.0641 53.4163 41.6121 52.3922C40.7135 50.3561 39.3714 48.5024 39.3714 48.5024C39.3714 48.5024 37.966 50.2917 37.0699 52.3906Z" fill="white"/>
</svg>
