<svg  viewBox="0 0 66 65" fill="none" xmlns="http://www.w3.org/2000/svg">
<path fill-rule="evenodd" clip-rule="evenodd" d="M56.99 34.5777C56.99 39.1698 54.0031 43.0227 49.9185 44.3209V48.5023C56.2731 47.1041 61.0309 41.4008 61.0309 34.5777C61.0309 26.7062 54.6987 20.3251 46.8877 20.3251C46.487 20.3251 46.0901 20.3419 45.6979 20.3748C42.7994 12.0455 34.9283 6.07275 25.6729 6.07275C13.9563 6.07275 4.45813 15.6444 4.45813 27.4517C4.45813 36.3752 9.88329 44.0217 17.5911 47.2246V42.7526C12.1887 39.8386 8.49905 34.0925 8.49905 27.4517C8.49905 17.8467 16.2174 10.1137 25.6729 10.1137C32.9939 10.1137 39.2735 14.7493 41.7356 21.3003L41.7524 21.2937C42.2194 22.558 42.5467 23.892 42.7153 25.276C43.9893 24.6911 45.4028 24.366 46.8877 24.366C52.4377 24.366 56.99 28.9085 56.99 34.5777ZM46.8878 36.3796H26.6832V40.4206H46.8878V36.3796ZM42.8469 44.4615H22.6423V48.5024H42.8469V44.4615ZM26.6832 52.5433H46.8878V56.5842H26.6832V52.5433Z" fill="url(#paint0_linear_206_1703)"/>
<defs>
<linearGradient id="paint0_linear_206_1703" x1="32.7445" y1="6.07275" x2="32.7445" y2="56.5842" gradientUnits="userSpaceOnUse">
<stop stop-color="#CED3EA"/>
<stop offset="1" stop-color="#7E83A9"/>
</linearGradient>
</defs>
</svg>
