<svg  viewBox="0 0 65 65" fill="none" xmlns="http://www.w3.org/2000/svg">
<path fill-rule="evenodd" clip-rule="evenodd" d="M4.16284 26.4248C4.16284 35.2395 9.11172 42.8557 16.2856 46.4489V41.7808C11.4571 38.5783 8.20376 32.9491 8.20376 26.4248C8.20376 16.2426 16.1276 8.24063 25.5965 8.24063C33.629 8.24063 40.5496 13.999 42.4644 21.9619L42.4705 21.9594C42.7409 23.0642 42.9133 24.2097 42.9776 25.3852C44.2365 24.7542 45.6372 24.4043 47.0962 24.4043C52.2605 24.4043 56.6948 28.7879 56.6948 34.5066C56.6948 37.9626 55.0753 40.931 52.6539 42.7389V47.4262C57.4166 45.22 60.7357 40.2652 60.7357 34.5066C60.7357 26.6955 54.6291 20.3634 47.0962 20.3634C46.8055 20.3634 46.517 20.3728 46.2309 20.3914C43.6953 11.0486 35.4172 4.19971 25.5965 4.19971C13.759 4.19971 4.16284 14.1502 4.16284 26.4248ZM37.9428 40.9773C38.3665 41.222 39.0302 41.1152 39.3695 40.5272C39.5554 40.2052 39.7943 39.5364 39.9673 38.4476C40.0363 38.0135 40.0883 37.5557 40.126 37.0856C38.9459 37.9205 38.0518 38.7667 37.6192 39.5163C37.2798 40.1043 37.5192 40.7326 37.9428 40.9773ZM40.1157 32.328C42.2217 31.1481 44.0048 30.4741 44.0048 30.4741C44.0048 30.4741 44.238 32.3714 44.2471 34.762C44.2571 37.3808 43.9981 40.5915 42.8688 42.5482C41.4486 45.0089 38.3388 45.8725 35.9229 44.4772C33.507 43.0819 32.6998 39.9559 34.1199 37.4953C35.3592 35.348 37.914 33.5615 40.1157 32.328ZM24.6021 43.0335C25.0257 43.2782 25.6894 43.1714 26.0288 42.5834C26.2146 42.2614 26.4535 41.5926 26.6265 40.5038C26.6955 40.0697 26.7475 39.6119 26.7852 39.1418C25.6051 39.9767 24.711 40.8229 24.2784 41.5725C23.939 42.1605 24.1784 42.7889 24.6021 43.0335ZM26.7749 34.3842C28.8809 33.2043 30.664 32.5303 30.664 32.5303C30.664 32.5303 30.8972 34.4276 30.9063 36.8182C30.9163 39.437 30.6573 42.6477 29.528 44.6044C28.1078 47.0651 24.9981 47.9287 22.5821 46.5334C20.1662 45.1381 19.359 42.0122 20.7791 39.5515C22.0184 37.4042 24.5732 35.6177 26.7749 34.3842ZM43.9241 52.9188C43.5847 53.5068 42.9211 53.6136 42.4974 53.3689C42.0737 53.1242 41.8343 52.4958 42.1737 51.9078C42.6063 51.1582 43.5004 50.312 44.6805 49.4771C44.6429 49.9472 44.5908 50.405 44.5219 50.8391C44.3488 51.928 44.1099 52.5967 43.9241 52.9188ZM48.5593 42.8656C48.5593 42.8656 46.7762 43.5396 44.6702 44.7195C42.4685 45.9531 39.9138 47.7396 38.6745 49.8868C37.2543 52.3475 38.0615 55.4734 40.4775 56.8687C42.8934 58.2641 46.0032 57.4004 47.4233 54.9398C48.5526 52.9831 48.8116 49.7724 48.8017 47.1535C48.7925 44.763 48.5593 42.8656 48.5593 42.8656ZM28.9233 56.6054C29.347 56.8501 30.0106 56.7433 30.35 56.1553C30.5358 55.8333 30.7747 55.1645 30.9478 54.0757C31.0167 53.6416 31.0688 53.1837 31.1064 52.7137C29.9263 53.5486 29.0322 54.3947 28.5996 55.1444C28.2602 55.7324 28.4996 56.3607 28.9233 56.6054ZM31.0961 47.9561C33.2021 46.7762 34.9852 46.1022 34.9852 46.1022C34.9852 46.1022 35.2184 47.9995 35.2276 50.3901C35.2375 53.0089 34.9785 56.2196 33.8492 58.1763C32.4291 60.637 29.3193 61.5006 26.9034 60.1053C24.4874 58.7099 23.6802 55.584 25.1004 53.1234C26.3397 50.9761 28.8944 49.1896 31.0961 47.9561Z" fill="url(#paint0_linear_206_1461)"/>
<defs>
<linearGradient id="paint0_linear_206_1461" x1="32.4493" y1="4.19971" x2="32.4493" y2="60.7726" gradientUnits="userSpaceOnUse">
<stop stop-color="#95B6F6"/>
<stop offset="1" stop-color="#5193DE"/>
</linearGradient>
</defs>
</svg>
