<svg  viewBox="0 0 65 65" fill="none" xmlns="http://www.w3.org/2000/svg">
<path fill-rule="evenodd" clip-rule="evenodd" d="M46.8139 41.1557C46.8139 46.8478 41.1298 52.5434 32.6707 52.5434C24.2116 52.5434 18.5275 46.8478 18.5275 41.1557C18.5275 35.2514 22.3676 27.8986 26.8811 21.4976C28.9211 18.6045 30.9686 16.0844 32.5696 14.2227C34.2012 16.2298 36.3182 18.9621 38.4276 22.0456C40.6269 25.2606 42.766 28.7824 44.3422 32.21C45.9473 35.7004 46.8139 38.7651 46.8139 41.1557ZM14.4866 41.1557C14.4866 30.1708 24.854 16.9246 29.9325 11.0949C31.5799 9.20392 32.6707 8.09326 32.6707 8.09326C32.6707 8.09326 33.7158 9.2485 35.3048 11.1836C40.3442 17.3207 50.8548 31.3017 50.8548 41.1557C50.8548 49.6767 42.7135 56.5843 32.6707 56.5843C22.6279 56.5843 14.4866 49.6767 14.4866 41.1557ZM23.5753 34.3592H27.9225C27.1045 36.226 26.6093 37.9964 26.6093 39.5024C26.6093 41.815 28.8715 44.4615 32.6707 44.4615V48.5025C27.0914 48.5025 22.5684 44.473 22.5684 39.5024C22.5684 37.8438 22.9543 36.0967 23.5753 34.3592Z" fill="white"/>
</svg>
