<svg viewBox="0 0 66 65" fill="none" xmlns="http://www.w3.org/2000/svg">
<path fill-rule="evenodd" clip-rule="evenodd" d="M30.7241 4.19971V10.2611H34.765V4.19971H30.7241ZM42.0637 43.1252C45.0207 40.533 46.8878 36.7276 46.8878 32.4861C46.8878 24.6751 40.5556 18.3429 32.7446 18.3429C24.9335 18.3429 18.6013 24.6751 18.6013 32.4861C18.6013 32.7727 18.6099 33.0572 18.6267 33.3395C17.2432 33.8257 15.9515 34.507 14.7847 35.3504C14.6371 34.4174 14.5604 33.4607 14.5604 32.4861C14.5604 22.4433 22.7017 14.302 32.7446 14.302C42.7874 14.302 50.9287 22.4433 50.9287 32.4861C50.9287 37.4737 48.9207 41.9923 45.669 45.2776C44.6423 44.3265 43.4176 43.5862 42.0637 43.1252ZM54.9696 30.4657H61.031V34.5066H54.9696V30.4657ZM56.2311 16.5932L50.9817 19.6238L53.0022 23.1234L58.2515 20.0927L56.2311 16.5932ZM42.1074 12.2286L45.1381 6.97932L48.6377 8.99978L45.607 14.2491L42.1074 12.2286ZM16.8516 8.99978L19.8823 14.2491L23.3818 12.2286L20.3511 6.97932L16.8516 8.99978ZM12.4869 23.1234L7.23762 20.0927L9.25808 16.5932L14.5074 19.6238L12.4869 23.1234ZM10.5195 30.4657H4.45813V34.5066H10.5195V30.4657ZM56.2312 48.3791L50.9819 45.3484L53.0023 41.8489L58.2516 44.8796L56.2312 48.3791Z" fill="url(#paint0_linear_206_1444)"/>
<path fill-rule="evenodd" clip-rule="evenodd" d="M23.6525 56.7309C23.7087 56.7309 23.7648 56.7304 23.8208 56.7296H38.6709C38.6968 56.7302 38.7227 56.7306 38.7486 56.7308H38.8059V56.7311C38.8059 56.7311 38.8059 56.7311 38.8059 56.7311C42.1536 56.7311 44.8673 54.0173 44.8673 50.6697C44.8673 47.3221 42.1536 44.6083 38.8059 44.6083C37.2514 44.6083 35.8336 45.1935 34.7607 46.1556C34.7692 45.9777 34.7734 45.7987 34.7734 45.6188C34.7734 44.2544 34.5276 42.9475 34.0777 41.7399C35.4884 40.9914 37.0977 40.5674 38.8059 40.5674C44.3853 40.5674 48.9083 45.0903 48.9083 50.6697C48.9083 56.249 44.3853 60.772 38.8059 60.772C38.7812 60.772 38.7565 60.7719 38.7319 60.7717L23.7308 60.7717V60.7716C23.7047 60.7717 23.6786 60.7718 23.6525 60.7718C15.2835 60.7718 8.49902 53.9873 8.49902 45.6183C8.49902 37.2493 15.2835 30.4648 23.6525 30.4648C30.2636 30.4648 35.8859 34.6985 37.9561 40.6025C36.5613 40.7187 35.2469 41.1182 34.0708 41.7434C32.4981 37.5167 28.4269 34.5058 23.6525 34.5058C17.5152 34.5058 12.5399 39.481 12.5399 45.6183C12.5399 51.7556 17.5152 56.7309 23.6525 56.7309Z" fill="url(#paint1_linear_206_1444)"/>
<defs>
<linearGradient id="paint0_linear_206_1444" x1="32.7446" y1="4.19971" x2="32.7446" y2="48.3791" gradientUnits="userSpaceOnUse">
<stop stop-color="#EFC977"/>
<stop offset="1" stop-color="#E07256"/>
</linearGradient>
<linearGradient id="paint1_linear_206_1444" x1="28.7036" y1="30.4648" x2="28.7036" y2="60.772" gradientUnits="userSpaceOnUse">
<stop stop-color="#B2D4F7"/>
<stop offset="1" stop-color="#D9E2F3"/>
</linearGradient>
</defs>
</svg>
