<svg viewBox="0 0 65 65" fill="none" xmlns="http://www.w3.org/2000/svg">
<path fill-rule="evenodd" clip-rule="evenodd" d="M4.38428 26.351C4.38428 35.9714 10.279 44.164 18.5275 47.2574V42.8593C12.6082 39.9961 8.4252 33.749 8.4252 26.351C8.4252 16.1689 16.349 8.1669 25.8179 8.1669C33.8504 8.1669 40.771 13.9253 42.6858 21.8881L42.6919 21.8856C42.9624 22.9905 43.1348 24.1359 43.199 25.3115C44.4579 24.6805 45.8586 24.3306 47.3176 24.3306C52.4819 24.3306 56.9162 28.7142 56.9162 34.4328C56.9162 40.1115 52.5438 44.4736 47.426 44.5345V44.5352H46.8139V48.5666C46.9811 48.5728 47.149 48.576 47.3176 48.576C54.8505 48.576 60.9572 42.2439 60.9572 34.4328C60.9572 26.6218 54.8505 20.2897 47.3176 20.2897C47.027 20.2897 46.7385 20.2991 46.4523 20.3177C43.9168 10.9749 35.6387 4.12598 25.8179 4.12598C13.9804 4.12598 4.38428 14.0765 4.38428 26.351ZM35.0305 33.3121L26.9487 45.4349L24.8545 48.5761H28.6298H34.7806L28.3388 57.4954L31.6147 59.8613L40.37 47.7386L42.6836 44.5352H38.7321H32.4051L38.3928 35.5536L35.0305 33.3121ZM41.4818 54.4848C41.0622 55.4675 40.7544 56.518 40.7547 57.4845C40.7552 59.2598 42.1125 60.6988 43.7863 60.6988C45.4601 60.6988 46.8166 59.2598 46.816 57.4845C46.8158 56.5808 46.476 55.5105 46.024 54.4864C45.1254 52.4503 43.7832 50.5965 43.7832 50.5965C43.7832 50.5965 42.3778 52.3859 41.4818 54.4848ZM18.5296 57.4845C18.5293 56.518 18.8372 55.4675 19.2567 54.4848C20.1528 52.3859 21.5582 50.5965 21.5582 50.5965C21.5582 50.5965 22.9003 52.4503 23.7989 54.4864C24.2509 55.5105 24.5907 56.5808 24.591 57.4845C24.5915 59.2598 23.2351 60.6988 21.5613 60.6988C19.8875 60.6988 18.5302 59.2598 18.5296 57.4845Z" fill="white"/>
</svg>
