<svg viewBox="0 0 66 66" fill="none" xmlns="http://www.w3.org/2000/svg">
<path fill-rule="evenodd" clip-rule="evenodd" d="M20.6957 48.3056C11.4063 45.8704 4.53198 37.1463 4.53198 26.7573C4.53198 14.4827 14.1281 4.53223 25.9656 4.53223C30.6065 4.53223 34.9029 6.06165 38.4115 8.66094C40.8065 6.11907 44.2038 4.53223 47.9718 4.53223C55.225 4.53223 61.1048 10.4121 61.1048 17.6652C61.1048 20.8319 59.984 23.7369 58.1175 26.005C59.9868 28.4255 61.1049 31.4969 61.1049 34.8391C61.1049 42.6502 54.9982 48.9823 47.4653 48.9823C47.2967 48.9823 47.1288 48.9791 46.9616 48.9728V44.9414H47.5737V44.9407C52.6915 44.8799 57.0639 40.5177 57.0639 34.8391C57.0639 29.1204 52.6296 24.7368 47.4653 24.7368C46.0063 24.7368 44.6056 25.0867 43.3467 25.7177C43.2825 24.5422 43.1101 23.3967 42.8396 22.2919L42.8335 22.2944C40.9187 14.3315 33.9981 8.57315 25.9656 8.57315C16.4967 8.57315 8.5729 16.5751 8.5729 26.7573C8.5729 34.972 13.7303 41.7676 20.6957 44.0871V48.3056ZM55.1966 23.1858C56.3679 21.6552 57.0639 19.7415 57.0639 17.6652C57.0639 12.6438 52.9932 8.57315 47.9718 8.57315C45.399 8.57315 43.0758 9.64181 41.4218 11.3595C43.8285 13.9564 45.6324 17.1586 46.6 20.7239C46.8862 20.7053 47.1747 20.6959 47.4653 20.6959C50.3358 20.6959 52.9993 21.6154 55.1966 23.1858ZM27.0964 45.8411L35.1782 33.7184L38.5405 35.9599L32.5528 44.9414H38.8798H42.8313L40.5177 48.1448L31.7624 60.2676L28.4865 57.9017L34.9283 48.9823H28.7775H25.0022L27.0964 45.8411Z" fill="white"/>
</svg>
