<svg  viewBox="0 0 66 65" fill="none" xmlns="http://www.w3.org/2000/svg">
<path fill-rule="evenodd" clip-rule="evenodd" d="M35.1782 33.312L38.5405 35.5535L32.5527 44.5351H42.8313L31.7624 59.8612L28.4865 57.4953L34.9282 48.576H25.0022L35.1782 33.312Z" fill="url(#paint0_linear_206_1802)"/>
<path fill-rule="evenodd" clip-rule="evenodd" d="M20.6957 47.8993C11.4063 45.4641 4.53198 36.74 4.53198 26.351C4.53198 14.0765 14.1281 4.12598 25.9656 4.12598C35.7864 4.12598 44.0645 10.9749 46.6 20.3177C46.8862 20.2991 47.1747 20.2897 47.4653 20.2897C54.9982 20.2897 61.1049 26.6218 61.1049 34.4328C61.1049 42.2439 54.9982 48.576 47.4653 48.576C47.2967 48.576 47.1288 48.5728 46.9616 48.5666V44.5352H47.5737V44.5345C52.6915 44.4736 57.0639 40.1115 57.0639 34.4328C57.0639 28.7142 52.6296 24.3306 47.4653 24.3306C46.0063 24.3306 44.6056 24.6805 43.3467 25.3115C43.2825 24.1359 43.1101 22.9905 42.8396 21.8856L42.8335 21.8881C40.9187 13.9253 33.9981 8.1669 25.9656 8.1669C16.4967 8.1669 8.5729 16.1689 8.5729 26.351C8.5729 34.5657 13.7303 41.3613 20.6957 43.6808V47.8993Z" fill="url(#paint1_linear_206_1802)"/>
<defs>
<linearGradient id="paint0_linear_206_1802" x1="33.9167" y1="33.312" x2="33.9167" y2="59.8612" gradientUnits="userSpaceOnUse">
<stop stop-color="#F5BD52"/>
<stop offset="1" stop-color="#F5DA79"/>
</linearGradient>
<linearGradient id="paint1_linear_206_1802" x1="32.8184" y1="4.12598" x2="32.8184" y2="48.576" gradientUnits="userSpaceOnUse">
<stop stop-color="#95B6F6"/>
<stop offset="1" stop-color="#5193DE"/>
</linearGradient>
</defs>
</svg>
