<svg viewBox="0 0 65 65" fill="none" xmlns="http://www.w3.org/2000/svg">
<path fill-rule="evenodd" clip-rule="evenodd" d="M18.38 47.2574C10.1316 44.164 4.23682 35.9714 4.23682 26.351C4.23682 14.0765 13.833 4.12598 25.6704 4.12598C35.4912 4.12598 43.7693 10.9749 46.3049 20.3177C46.591 20.2991 46.8795 20.2897 47.1702 20.2897C54.7031 20.2897 60.8097 26.6218 60.8097 34.4328C60.8097 41.7123 55.506 47.7072 48.6869 48.4896V44.4078C53.1733 43.6492 56.7688 39.5823 56.7688 34.4328C56.7688 28.7142 52.3345 24.3306 47.1702 24.3306C45.7112 24.3306 44.3105 24.6805 43.0515 25.3115C42.9873 24.1359 42.8149 22.9905 42.5445 21.8856L42.5384 21.8881C40.6236 13.9253 33.7029 8.1669 25.6704 8.1669C16.2016 8.1669 8.27774 16.1689 8.27774 26.351C8.27774 33.749 12.4607 39.9961 18.38 42.8593V47.2574ZM28.4823 36.4533L26.9801 37.5049L27.2988 39.3107L25.493 38.992L24.4414 40.4943L23.3899 38.992L21.5841 39.3107L21.9028 37.5049L20.4005 36.4533L21.9028 35.4018L21.5841 33.596L23.3899 33.9147L24.4414 32.4124L25.493 33.9147L27.2988 33.596L26.9801 35.4018L28.4823 36.4533ZM35.0619 43.5663L36.5642 42.5147L35.0619 41.4632L35.3806 39.6573L33.5748 39.9761L32.5233 38.4738L31.4717 39.9761L29.6659 39.6573L29.9846 41.4632L28.4823 42.5147L29.9846 43.5663L29.6659 45.3721L31.4717 45.0534L32.5233 46.5556L33.5748 45.0534L35.3806 45.3721L35.0619 43.5663ZM36.5642 30.392L35.0619 31.4435L35.3806 33.2493L33.5748 32.9306L32.5233 34.4329L31.4717 32.9306L29.6659 33.2493L29.9846 31.4435L28.4823 30.392L29.9846 29.3404L29.6659 27.5346L31.4717 27.8533L32.5233 26.351L33.5748 27.8533L35.3806 27.5346L35.0619 29.3404L36.5642 30.392ZM43.1437 37.5049L44.646 36.4533L43.1437 35.4018L43.4625 33.596L41.6566 33.9147L40.6051 32.4124L39.5535 33.9147L37.7477 33.596L38.0664 35.4018L36.5642 36.4533L38.0664 37.5049L37.7477 39.3107L39.5535 38.992L40.6051 40.4943L41.6566 38.992L43.4625 39.3107L43.1437 37.5049ZM25.4558 56.6622C25.9451 56.6622 26.4664 56.2378 26.4662 55.5589C26.466 55.1871 26.3384 54.4885 25.9437 53.4591C25.7863 53.0487 25.6024 52.6262 25.3999 52.2003C24.7956 53.5135 24.4445 54.6934 24.4448 55.5589C24.445 56.2378 24.9666 56.6622 25.4558 56.6622ZM23.0116 48.0856C24.2452 46.0106 25.4521 44.5352 25.4521 44.5352C25.4521 44.5352 26.603 46.0615 27.8065 48.1271C29.1249 50.3899 30.5064 53.2997 30.5071 55.5589C30.5079 58.4 28.247 60.7031 25.4571 60.7031C22.6671 60.7031 20.4047 58.4 20.4039 55.5589C20.4031 53.0797 21.7219 50.255 23.0116 48.0856ZM40.6094 55.5589C40.6096 56.2378 40.0883 56.6622 39.599 56.6622C39.1098 56.6622 38.5882 56.2378 38.588 55.5589C38.5877 54.6934 38.9388 53.5135 39.5431 52.2003C39.7456 52.6262 39.9295 53.0487 40.0869 53.4591C40.4816 54.4885 40.6093 55.1871 40.6094 55.5589ZM39.5953 44.5352C39.5953 44.5352 38.3884 46.0106 37.1548 48.0856C35.8651 50.255 34.5463 53.0797 34.5471 55.5589C34.548 58.4 36.8104 60.7031 39.6003 60.7031C42.3902 60.7031 44.6512 58.4 44.6503 55.5589C44.6496 53.2997 43.2681 50.3899 41.9497 48.1271C40.7462 46.0615 39.5953 44.5352 39.5953 44.5352Z" fill="white"/>
</svg>
