<svg viewBox="0 0 65 65" fill="none" xmlns="http://www.w3.org/2000/svg">
<path fill-rule="evenodd" clip-rule="evenodd" d="M30.5025 10.4359V4.37451H34.5435V10.4359H30.5025ZM41.8859 12.4034L44.9166 7.15412L48.4161 9.17458L45.3854 14.4239L41.8859 12.4034ZM32.523 46.8042C40.3341 46.8042 46.6662 40.472 46.6662 32.6609C46.6662 24.8499 40.3341 18.5177 32.523 18.5177C24.7119 18.5177 18.3798 24.8499 18.3798 32.6609C18.3798 40.472 24.7119 46.8042 32.523 46.8042ZM32.523 50.8451C42.5658 50.8451 50.7071 42.7038 50.7071 32.6609C50.7071 22.6181 42.5658 14.4768 32.523 14.4768C22.4802 14.4768 14.3389 22.6181 14.3389 32.6609C14.3389 42.7038 22.4802 50.8451 32.523 50.8451ZM54.7481 30.6405H60.8094V34.6814H54.7481V30.6405ZM56.0095 16.768L50.7602 19.7986L52.7806 23.2982L58.03 20.2675L56.0095 16.768ZM16.63 9.17458L19.6607 14.4239L23.1602 12.4034L20.1296 7.15412L16.63 9.17458ZM12.2654 23.2982L7.01606 20.2675L9.03652 16.768L14.2858 19.7986L12.2654 23.2982ZM30.5025 54.886V60.9474H34.5435V54.886H30.5025ZM10.298 30.6405H4.23657V34.6814H10.298V30.6405ZM7.01595 45.0544L12.2653 42.0237L14.2857 45.5232L9.03641 48.5539L7.01595 45.0544ZM19.6608 50.8984L16.6301 56.1477L20.1297 58.1681L23.1604 52.9188L19.6608 50.8984ZM44.9165 58.1681L41.8858 52.9188L45.3853 50.8984L48.416 56.1477L44.9165 58.1681ZM50.7603 45.5232L56.0096 48.5539L58.0301 45.0544L52.7808 42.0237L50.7603 45.5232Z" fill="url(#paint0_linear_206_1754)"/>
<defs>
<linearGradient id="paint0_linear_206_1754" x1="32.523" y1="4.37451" x2="32.523" y2="60.9474" gradientUnits="userSpaceOnUse">
<stop stop-color="#EFC977"/>
<stop offset="1" stop-color="#E07256"/>
</linearGradient>
</defs>
</svg>
